<?xml version="1.0"?>
<svg xmlns="http://www.w3.org/2000/svg" viewBox="0 0 200 200" width="200" height="200" fill="none" stroke="#0A0118" stroke-width="2" stroke-linejoin="miter">
  <title>Altaweb.ia · Generativo</title>
  <path d="M 30 32 L 48 80 L 12 80 Z" opacity="0.2"></path>
  <path d="M 70 16 L 84 56 L 56 56 Z" fill="#7C3AED" stroke="none" opacity="0.8"></path>
  <path d="M 120 44 L 136 92 L 104 92 Z" opacity="0.4"></path>
  <path d="M 160 28 L 172 64 L 148 64 Z" opacity="0.25"></path>
  <path d="M 50 83 L 62 116 L 38 116 Z" opacity="0.3"></path>
  <path d="M 95 88 L 117 154 L 73 154 Z" fill="#7C3AED" stroke="none"></path>
  <path d="M 150 84 L 166 132 L 134 132 Z" opacity="0.5"></path>
  <path d="M 180 116 L 194 158 L 166 158 Z" fill="#D946EF" stroke="none" opacity="0.8"></path>
  <path d="M 35 132 L 53 186 L 17 186 Z" opacity="0.35"></path>
  <path d="M 85 142 L 99 184 L 71 184 Z" fill="#22D3EE" stroke="none" opacity="0.7"></path>
  <path d="M 135 154 L 151 202 L 119 202 Z" opacity="0.45"></path>
  <path d="M 170 161 L 180 191 L 160 191 Z" opacity="0.3"></path>
</svg>